<svg id="Layer_1" data-name="Layer 1" xmlns="http://www.w3.org/2000/svg" viewBox="0 0 1835.28 768.11"><path d="M279.88,360.37a17.81,17.81,0,0,1-3.57-3.58q-11.76-13.28-6.13-27.08a33.25,33.25,0,0,1,7.15-9.71h-.51q-7.15,0-14.56,8.68a130,130,0,0,0-14.06,20.44l-3.57,7.16-6.14,14.82q10.23.51,22.49,7.15l6.64,4.6a96.05,96.05,0,0,1,25,33.22l.51.51q2.55,6.14,6.65,15.07t8.94,19.43q4.85,10.47,10,20.94t9.2,19.17q4.09,8.7,6.9,14.31a48.87,48.87,0,0,0,3.32,6.13,19.11,19.11,0,0,0,4.35,5.62,13.48,13.48,0,0,0,6.13,3.32,10.2,10.2,0,0,0,6.39-.51c2-.84,3.74-2.81,5.11-5.88l1,.52a17.44,17.44,0,0,1,1,11.75q-1.53,5.63-7.15,12t-19.42,13c-2,.69-4.34,1.53-6.9,2.56a63.61,63.61,0,0,1-7.92,2.55,53.34,53.34,0,0,1-15.84.77A47.56,47.56,0,0,1,287.29,552q-8.94-4.61-17.88-14.31T252.8,511.63L237,479.43a1.43,1.43,0,0,1-.51-1l.51,1c-.69-2.72-1-3.23-1-1.53a73.91,73.91,0,0,1-3.07-7.15,64.64,64.64,0,0,0-4.09-8.69l-8.68-18.91v79.72a34.86,34.86,0,0,1-8.69,15.84q-5.64,5.64-16.35,10.48t-28.62,4.86H123V550q1.53-1,4.09-2.81a20.11,20.11,0,0,0,5.11-5.88q4.08-6.13,7.15-16.86t3.07-27.09V215.24c0-4.77-.18-9.28-.51-13.55a39,39,0,0,0-2-10.47,9.42,9.42,0,0,0-6.89-5.11q-4.87-1-8.43,3.06l-1-.51q0-5.1,4.09-10.73,3.57-4.08,11.5-7.66t23.76-3.58a76.73,76.73,0,0,1,16.61,2.3,45.68,45.68,0,0,1,18.91,9.71q8.93,7.41,15.33,21.46t6.39,37.56V366.5q8.67-25.54,18.39-39.6a143.94,143.94,0,0,1,18.91-22.75l2.56-2a44.28,44.28,0,0,1,15.58-6.64,56.55,56.55,0,0,1,17.63-1.28,45.08,45.08,0,0,1,16.36,4.6,34,34,0,0,1,12.26,10q10.21,13.31,7.41,28.11t-12,22.48h-.51a9.26,9.26,0,0,1-4.09,3.07l-2,2a28.15,28.15,0,0,1-24.53,0C285,364.12,283,362.75,279.88,360.37Z"/><path d="M476.62,537.18a17.59,17.59,0,0,1-4.08,11.24q-3.59,4.11-11.76,7.41t-24,3.33A81.14,81.14,0,0,1,422,557.62a49.38,49.38,0,0,1-14.57-5.88,46.47,46.47,0,0,1-13.54-12.51,70.89,70.89,0,0,1-10.22-20.7q-4.1-12.52-4.09-30.92V327.15a11.75,11.75,0,0,0-2-6.64,16.66,16.66,0,0,0-4.86-4.86,11.22,11.22,0,0,0-6.13-1.79,8.09,8.09,0,0,0-5.88,2.56l-.51-.51a16.92,16.92,0,0,1,4.09-10.73q3.57-4.1,11.5-7.67t23.76-3.58a86.73,86.73,0,0,1,14.82,1.54,68.4,68.4,0,0,1,14.82,6.38,46.68,46.68,0,0,1,13.8,12.27q6.14,7.94,10.22,20.44t4.09,30.92V524.41a18,18,0,0,0,1.53,7.15,18.55,18.55,0,0,0,3.83,5.88,7.66,7.66,0,0,0,5.62,2.3c2.22,0,4.68-1,7.41-3.07ZM414.79,266.34a40.36,40.36,0,0,1-15.58-3,38.55,38.55,0,0,1-12.78-8.38,42.87,42.87,0,0,1-8.69-12.44,35.4,35.4,0,0,1-3.32-15.23q0-17.27,12-28.94a39.29,39.29,0,0,1,28.36-11.68,40.67,40.67,0,0,1,15.59,3,39.74,39.74,0,0,1,13,8.63,43.28,43.28,0,0,1,8.94,12.94,38.59,38.59,0,0,1,3.32,16,35.55,35.55,0,0,1-3.32,15.23,40.92,40.92,0,0,1-8.94,12.44,41.74,41.74,0,0,1-13,8.38A40.49,40.49,0,0,1,414.79,266.34Z"/><path d="M839.45,313.86q6.64,9.72,7.16,25.81t-9.2,39.1q0,.51-5.11,12T819.52,419.9q-7.66,17.63-17.12,38.33t-18.14,39.6q-8.68,18.92-15.58,33.73T759.22,552c-4.08,4.77-8.86,7.16-14.3,7.16q-6.66,0-10.23-3.07c-2.38-2-3.75-3.4-4.08-4.09a188.26,188.26,0,0,1-11.76-22.23q-4.59-10.47-9.71-21.21-11.76-25-20.44-45t-14.82-33.21l-27.59,63.36q-6.66,14.31-12.27,26.58-5.12,10.23-9.71,19.67t-5.62,12a21.05,21.05,0,0,1-6.39,5.11,16.66,16.66,0,0,1-7.92,2,14.94,14.94,0,0,1-9.71-3.33q-4.09-3.32-4.6-3.83a115.91,115.91,0,0,1-10.73-19.67q-5.62-12.52-10.73-23.77-9.71-21.45-22-49.82t-23.51-54.43q-11.25-26.06-19.42-45t-9.2-22a16.43,16.43,0,0,0-11.75-7.92q-7.67-1.27-10.22,5.88l-1.54-.52a15.53,15.53,0,0,1-.51-11.75q1.54-5.61,7.41-11.75t20.7-12.78a63.53,63.53,0,0,1,6.13-2q3.57-1,8.69-2.05a48.55,48.55,0,0,1,15.84-.51,47.1,47.1,0,0,1,17.38,5.88q8.67,4.86,17.37,14.56T579.85,341q1.53,3.58,5.62,13t9.46,22.23Q600.29,389,606.43,403t11.49,26.57q5.37,12.52,9.46,22T633,464.11l46.5-105.28a53.89,53.89,0,0,0,3.07-12c.33-3.24.16-5.7-.51-7.42a18.34,18.34,0,0,0-2.56-5.11v5.37c0,1.53-.68,3.67-2,6.39q-6.65,13.29-25.55,12.77-14.83-1-22-11.24t-6.64-19.93a35.42,35.42,0,0,1,6.9-19.16q6.39-8.94,18.14-13a27.24,27.24,0,0,1,6.13-1.54,48.79,48.79,0,0,1,6.65-.51q3.06,0,5.87.26a26.29,26.29,0,0,1,5.88,1.28q11.75,2.55,24.53,12.77t23,33.22q1.53,3.58,5.62,13t9.7,22.23Q741.34,389,747.47,403T759,429.61q5.35,12.52,9.2,22t5.36,12.53L820,358.83a54.34,54.34,0,0,0,3.06-12c.34-3.24.17-5.7-.51-7.42A18.34,18.34,0,0,0,820,334.3a24.93,24.93,0,0,1-.52,5.37,51.34,51.34,0,0,1-2,6.39q-5.64,13.8-24.53,12.77-12.27,0-20.44-10t-8.69-21.21a30.4,30.4,0,0,1,2.56-11.75,32,32,0,0,1,7.66-11,46.86,46.86,0,0,1,12-8.18,35.53,35.53,0,0,1,15.59-3.32,52,52,0,0,1,20.44,4.35Q832.3,302.11,839.45,313.86Z"/><path d="M970.27,537.18a17.6,17.6,0,0,1-4.09,11.24q-3.57,4.11-11.75,7.41t-24,3.33a81.31,81.31,0,0,1-14.82-1.54A49.33,49.33,0,0,1,901,551.74a46.5,46.5,0,0,1-13.55-12.51,71.39,71.39,0,0,1-10.22-20.7q-4.1-12.52-4.08-30.92V327.15a11.76,11.76,0,0,0-2-6.64,16.51,16.51,0,0,0-4.85-4.86,11.24,11.24,0,0,0-6.13-1.79,8.09,8.09,0,0,0-5.88,2.56l-.51-.51a16.87,16.87,0,0,1,4.09-10.73q3.57-4.1,11.49-7.67t23.76-3.58a86.84,86.84,0,0,1,14.83,1.54,68.82,68.82,0,0,1,14.82,6.38,46.53,46.53,0,0,1,13.79,12.27q6.13,7.94,10.22,20.44t4.09,30.92V524.41a18,18,0,0,0,1.53,7.15,18.74,18.74,0,0,0,3.84,5.88,7.64,7.64,0,0,0,5.62,2.3c2.21,0,4.68-1,7.41-3.07ZM908.44,266.34a40.45,40.45,0,0,1-15.59-3,38.66,38.66,0,0,1-12.78-8.38,43,43,0,0,1-8.68-12.44,35.4,35.4,0,0,1-3.32-15.23q0-17.27,12-28.94a39.32,39.32,0,0,1,28.37-11.68,40.62,40.62,0,0,1,15.58,3,39.78,39.78,0,0,1,13,8.63A43.28,43.28,0,0,1,946,211.24a38.59,38.59,0,0,1,3.32,16A35.55,35.55,0,0,1,946,242.47a40.92,40.92,0,0,1-8.94,12.44,41.78,41.78,0,0,1-13,8.38A40.44,40.44,0,0,1,908.44,266.34Z"/><path d="M999.4,327.66q0-6.14-5.62-10.73a11.82,11.82,0,0,0-6.9-2.81,8.66,8.66,0,0,0-6.9,2.81l-1-1A19.06,19.06,0,0,1,983,304.66q3.59-4.08,11.25-7.41t23-3.83h1a86.83,86.83,0,0,1,14.82,1.54,69.05,69.05,0,0,1,13.79,6.13,50.89,50.89,0,0,1,13.29,11.24,60.21,60.21,0,0,1,10.22,17.89q4.08,10.72,5.11,26.57a24.63,24.63,0,0,1,.51,4.6v91h-.51V559.67q0,31.68-7.41,53.65t-18.4,36q-11,14.05-24,21.72a130.66,130.66,0,0,1-24.53,11.5q-11.51,3.82-19.42,4.34t-8.95.51q-21.47,0-35.25-6.13t-22.24-15.07a56.18,56.18,0,0,1-12-18.4,82.81,82.81,0,0,1-4.59-16.1c-.34-1.71-.6-3.15-.77-4.34a31.49,31.49,0,0,1-.26-4.34v-.52a41.39,41.39,0,0,1,12.52-30.4q12.54-12.54,30.92-12.52,17.9,0,29.9,12.52t12,30.4a42.19,42.19,0,0,1-15.84,33.22,69.77,69.77,0,0,0,15.33-8.69,57.31,57.31,0,0,0,10.73-14q5.12-9,5.12-23.76l1-61.84V327.66ZM1073,226a38.56,38.56,0,0,1-12,28.62q-12,11.75-29.39,11.75a37.53,37.53,0,0,1-27.85-11.75A39.43,39.43,0,0,1,992.24,226a39.26,39.26,0,0,1,39.35-39.35q17.37,0,29.39,11.5A37.14,37.14,0,0,1,1073,226Z"/><path d="M1310.1,539.74a15.27,15.27,0,0,0-1,2.81,23,23,0,0,1-1.54,3.83l-4.34,4.35a18.55,18.55,0,0,1-5.88,3.83q-4.1,2-13.28,3.83t-23.51.25q-13.3-1.53-21.46-6.13a49.81,49.81,0,0,1-12.78-9.71,29.15,29.15,0,0,1-7.67-12.77,66.93,66.93,0,0,1-3.83,5.62,47.31,47.31,0,0,1-10.22,9.71,77.41,77.41,0,0,1-18.14,9.45q-11.25,4.34-27.09,4.35a48.41,48.41,0,0,1-20.95-4.6q-15.84-7.15-26.57-23.77t-10.73-39.6a63.86,63.86,0,0,1,4.85-25.55,66.85,66.85,0,0,1,13.55-20.19,124.31,124.31,0,0,1,20.18-16.61q11.5-7.65,24.79-15.33,8.67-5.1,18.39-11.75a122.9,122.9,0,0,0,17.63-14.56,74.79,74.79,0,0,0,13-17.38,41.87,41.87,0,0,0,5.11-20.18,24.58,24.58,0,0,0-2.29-9.46,32.94,32.94,0,0,0-7.16-10.22,40.33,40.33,0,0,0-12.52-8.18q-7.67-3.31-18.4-3.32a39.78,39.78,0,0,0-16.86,3.32,60.8,60.8,0,0,0-12.27,7.41,73.12,73.12,0,0,0-10.22,10.22c1.36-1.35,4-1.79,7.93-1.27a26,26,0,0,1,9.45,2.81q7.15,4.6,9.71,10.48a36.59,36.59,0,0,1,2.55,14.56q.51,12.25-8.43,22a29,29,0,0,1-22.23,9.71q-13.29,0-19.67-5.87a38,38,0,0,1-9.46-13,50.53,50.53,0,0,1-3.57-19.43q0-12.25,7.66-25.55a80.4,80.4,0,0,1,21-23.51q14.81-11.22,30.15-14t38.32-1.79a137.62,137.62,0,0,1,30.66,5.88,83.45,83.45,0,0,1,28.87,15.59q13,10.72,21.21,28.36t8.18,43.69V510.1q0,7.15.26,13.54a28.86,28.86,0,0,0,1.78,10,9.27,9.27,0,0,0,6.13,5.62q4.61,1.53,9.72-2.56l1,.51Zm-91.48-139.51a58.11,58.11,0,0,1-9.19,11.75,147.27,147.27,0,0,1-12,10.73q-6.4,5.12-12.27,9.71t-9.45,7.67a33.92,33.92,0,0,0-9.71,14.82,48.9,48.9,0,0,0-2.3,16.35,52.38,52.38,0,0,0,2.81,15.59,35,35,0,0,0,6.64,12q7.15,8.68,14.82,9.45a29.63,29.63,0,0,0,14.82-2.3,45.16,45.16,0,0,0,15.84-10.73v-95Z"/><path d="M1708.19,546.38q-3.59,4.1-11.76,7.41t-23.5,3.32a59.39,59.39,0,0,1-15.33-2,49.11,49.11,0,0,1-14.57-5.88,47.85,47.85,0,0,1-13.54-12.26q-6.13-7.92-10-20.44t-3.84-30.41V397.67a183.38,183.38,0,0,0-2.3-31.43,120.93,120.93,0,0,0-5.62-21.72q-3.33-8.67-6.9-12.77c-2.38-2.72-4.43-4.42-6.13-5.11a68.05,68.05,0,0,0-8.94-.77q-6.39-.24-13,5.62T1561,352.7q-5.1,15.33-5.11,45V522.36a16.83,16.83,0,0,0,1.54,6.65,16.5,16.5,0,0,0,4.08,5.87,9.66,9.66,0,0,0,5.88,2.56q3.31.25,7.41-2.81l.51.51a17.54,17.54,0,0,1-4.09,11.24c-2.38,2.73-6.31,5.2-11.75,7.41s-13.29,3.32-23.51,3.32a63.48,63.48,0,0,1-15.33-2,49.06,49.06,0,0,1-14.56-5.88,47.88,47.88,0,0,1-13.55-12.26q-6.12-7.92-10.22-20.44t-4.08-30.41V397.67q0-36.8-6.9-53.4t-14-17.63a68.07,68.07,0,0,0-9-.77q-6.39-.24-13,5.88T1423.8,353q-4.86,15.07-4.85,44.71V523.39a38.17,38.17,0,0,1-8.69,15.32q-5.62,5.64-16.35,10.48t-29.13,4.86h-42.42v-3.58a36,36,0,0,0,3.84-3.07,25.79,25.79,0,0,0,4.85-6.64q4.08-5.61,7.16-16.35t3.06-27.09V342.48q0-7.14-.51-13.54a32.84,32.84,0,0,0-2-10,10.11,10.11,0,0,0-6.65-5.36q-4.59-1.28-8.68,2.81l-1-.51a17.59,17.59,0,0,1,4.09-11.25q3.57-4.08,11.5-7.66t23.25-3.58a67.33,67.33,0,0,1,12,1.28,57,57,0,0,1,14.31,4.86,48.52,48.52,0,0,1,13.8,10.22,57.7,57.7,0,0,1,11,17.37,65.38,65.38,0,0,1,31.93-26.32q20.19-7.9,50.85-7.92a73.79,73.79,0,0,1,7.92,1,66,66,0,0,1,14.82,4.6A75.15,75.15,0,0,1,1535,309a52,52,0,0,1,14.31,18.65v-.51a65.41,65.41,0,0,1,31.94-26.32q20.17-7.9,50.85-7.92,1.53,0,11.24,2t20.7,8.94q11,6.9,19.67,20.44t8.69,36.54V522.36a17,17,0,0,0,1.53,6.65,16.4,16.4,0,0,0,4.09,5.87,9.64,9.64,0,0,0,5.87,2.56q3.32.25,7.41-2.81l1,.51A17.6,17.6,0,0,1,1708.19,546.38Z"/></svg>